<?xml version="1.0" encoding="iso-8859-1"?>
<!-- Generator: Adobe Illustrator 24.0.0, SVG Export Plug-In . SVG Version: 6.00 Build 0)  -->
<svg version="1.1" id="Layer_1" xmlns="http://www.w3.org/2000/svg" xmlns:xlink="http://www.w3.org/1999/xlink" x="0px" y="0px"
	 width="713.215px" height="265.963px" viewBox="0 0 713.215 265.963" enable-background="new 0 0 713.215 265.963"
	 xml:space="preserve">
<g>
	<path fill="#2E6056" d="M311.59,200.744c0,11.869-2.943,20.992-8.828,27.368s-14.321,9.564-25.308,9.564
		s-19.422-3.188-25.308-9.564c-5.885-6.376-8.828-15.529-8.828-27.466c0-11.934,2.95-21.048,8.851-27.344
		c5.904-6.293,14.363-9.44,25.383-9.44c11.017,0,19.445,3.172,25.284,9.515C308.67,179.722,311.59,188.844,311.59,200.744z
		 M259.258,200.744c0,8.013,1.52,14.045,4.561,18.098c3.041,4.055,7.584,6.082,13.635,6.082c12.13,0,18.196-8.059,18.196-24.18
		c0-16.152-6.033-24.229-18.098-24.229c-6.051,0-10.612,2.037-13.684,6.105C260.794,186.694,259.258,192.734,259.258,200.744z"/>
	<path fill="#2E6056" d="M341.655,209.18v27.515h-15.204V164.99h20.894c9.742,0,16.952,1.773,21.629,5.323
		c4.675,3.547,7.014,8.934,7.014,16.159c0,4.218-1.162,7.971-3.482,11.255c-2.323,3.289-5.609,5.862-9.858,7.726
		c10.79,16.121,17.819,26.534,21.09,31.242h-16.872l-17.117-27.515H341.655z M341.655,196.82h4.905c4.807,0,8.353-0.8,10.643-2.403
		c2.287-1.6,3.433-4.12,3.433-7.553c0-3.4-1.169-5.818-3.508-7.259c-2.336-1.438-5.958-2.158-10.862-2.158h-4.61V196.82z"/>
	<path fill="#2E6056" d="M420.423,236.695h-15.204v-59.051h-19.471V164.99h54.147v12.654h-19.471V236.695z"/>
	<path fill="#2E6056" d="M492.226,236.695h-41.297V164.99h41.297v12.458h-26.092v15.744h24.278v12.458h-24.278v18.49h26.092V236.695
		z"/>
	<path fill="#2E6056" d="M522.389,209.18v27.515h-15.204V164.99h20.894c9.742,0,16.952,1.773,21.629,5.323
		c4.675,3.547,7.014,8.934,7.014,16.159c0,4.218-1.162,7.971-3.482,11.255c-2.323,3.289-5.609,5.862-9.858,7.726
		c10.79,16.121,17.819,26.534,21.09,31.242h-16.872l-17.117-27.515H522.389z M522.389,196.82h4.905c4.806,0,8.353-0.8,10.643-2.403
		c2.287-1.6,3.433-4.12,3.433-7.553c0-3.4-1.169-5.818-3.508-7.259c-2.336-1.438-5.958-2.158-10.862-2.158h-4.61V196.82z"/>
	<path fill="#2E6056" d="M573.495,236.695V164.99h15.204v71.705H573.495z"/>
	<path fill="#2E6056" d="M650.644,236.695l-5.199-17.068h-26.141l-5.199,17.068h-16.381l25.308-71.999h18.588l25.406,71.999H650.644
		z M641.816,206.875c-4.807-15.465-7.512-24.211-8.118-26.24c-0.604-2.026-1.038-3.629-1.298-4.806
		c-1.079,4.187-4.169,14.536-9.27,31.046H641.816z"/>
</g>
<g>
	<linearGradient id="SVGID_1_" gradientUnits="userSpaceOnUse" x1="67.2522" y1="194.2853" x2="186.4056" y2="86.4304">
		<stop  offset="0" style="stop-color:#DEEEF1"/>
		<stop  offset="0.227" style="stop-color:#DCECEF"/>
		<stop  offset="0.3088" style="stop-color:#D5E7E9"/>
		<stop  offset="0.3671" style="stop-color:#CADDDF"/>
		<stop  offset="0.4142" style="stop-color:#B9D0D0"/>
		<stop  offset="0.4546" style="stop-color:#A3BEBD"/>
		<stop  offset="0.4903" style="stop-color:#87A8A5"/>
		<stop  offset="0.5219" style="stop-color:#688E89"/>
		<stop  offset="0.5296" style="stop-color:#5F8781"/>
		<stop  offset="0.7697" style="stop-color:#447169"/>
		<stop  offset="1" style="stop-color:#2E6056"/>
	</linearGradient>
	<polygon fill="url(#SVGID_1_)" points="57.16,181.076 184.905,80.288 217.877,80.288 90.132,181.076 	"/>
	<g>
		<path fill="#2E6056" d="M90.132,181.076c5.758,25.44,23.292,38.764,53.804,38.764c32.46,0,45.466-14.871,45.466-34.668
			c0-21.173-10.742-32.602-53.401-42.859c-53.085-12.806-70.389-31.227-70.389-61.766c0-33.575,24.837-59.961,74.256-59.961
			c53.257,0,75.03,30.339,78.011,59.703h-32.972c-3.61-18.337-14.9-34.065-46.127-34.065c-25.241,0-39.565,11.232-39.565,31.086
			c0,19.539,11.775,27.274,49.564,36.355c62.654,15.156,74.227,39.336,74.227,67.954c0,36.184-26.929,63.8-81.274,63.8
			c-55.149,0-79.9-29.564-84.57-64.344H90.132z"/>
	</g>
</g>
</svg>
